#!OML:ASF I:\golf\golf\golf 2\Subject 1\2002-09-07\Subject1.ASF
:FULLY-SPECIFIED
:DEGREES
351
root -7.23805 18.0231 -4.15881 -170.085 7.45461 -175.208
lowerback -9.37436 11.2547 14.5107
upperback -12.1264 18.3952 4.53987
thorax -5.88839 9.75454 -1.84313
lowerneck -9.2239 -18.9995 -4.53256
upperneck 17.5562 -27.8002 3.86947
head 8.09976 -13.6516 -1.0468
rclavicle 6.12257e-014 2.54444e-014
rhumerus 92.4445 35.0271 -58.9118
rradius 75.9577
rwrist -0.110008
rhand -49.5174 43.5196
rfingers 7.12502
rthumb -22.1258 14.7656
lclavicle 6.12257e-014 2.54444e-014
lhumerus 54.1401 17.3401 53.9838
lradius 82.2388
lwrist 4.34923
lhand -27.4874 15.5687
lfingers 7.12502
lthumb -180.891 -494.453
rfemur 14.995 -4.71278 16.2039
rtibia 19.3344
rfoot 33.2698 -31.5032
rtoes 25.4508
lfemur -23.0906 -19.9989 -14.8788
ltibia 23.5906
lfoot 44.196 -44.7618
ltoes 47.5732
352
root -7.23204 18.028 -4.14638 -170.183 7.3995 -175.273
lowerback -9.22667 11.1888 14.3715
upperback -11.9629 18.2373 4.56056
thorax -5.82062 9.66518 -1.78652
lowerneck -9.43152 -18.7697 -4.49815
upperneck 17.5148 -27.3812 3.77432
head 8.08375 -13.4412 -1.04019
rclavicle -1.22451e-013 3.18055e-015
rhumerus 91.9491 34.9352 -59.3285
rradius 75.3364
rwrist -0.886797
rhand -48.5623 43.3254
rfingers 7.12502
rthumb -21.2087 14.4656
lclavicle -1.22451e-013 3.18055e-015
lhumerus 54.1017 16.882 53.7386
lradius 81.4603
lwrist 4.83473
lhand -26.7667 15.6481
lfingers 7.12502
lthumb -180.195 -494.372
rfemur 15.1531 -4.66989 16.1812
rtibia 19.2462
rfoot 33.4402 -31.1239
rtoes 24.2962
lfemur -23.0646 -20.0415 -14.8982
ltibia 23.6327
lfoot 42.9106 -46.4745
ltoes 45.7511
353
root -7.22444 18.0322 -4.13227 -170.156 7.39121 -175.235
lowerback -9.1615 11.15 14.296
upperback -11.8046 18.1119 4.59596
thorax -5.70528 9.59805 -1.7193
lowerneck -9.73397 -18.5792 -4.55493
upperneck 17.578 -27.0794 3.84401
head 8.16137 -13.2716 -1.01522
rclavicle 1.15295e-013 1.78111e-013
rhumerus 91.5545 34.8061 -59.6516
rradius 74.7104
rwrist -1.51055
rhand -47.9381 42.6903
rfingers 7.12502
rthumb -20.609 13.7643
lclavicle 1.15295e-013 1.78111e-013
lhumerus 54.2039 16.4141 53.5399
lradius 80.5595
lwrist 5.26794
lhand -26.2268 15.6041
lfingers 7.12502
lthumb -179.673 -494.416
rfemur 15.1885 -4.61637 16.2623
rtibia 19.1342
rfoot 32.7745 -31.713
rtoes 25.661
lfemur -23.1858 -19.9758 -14.7835
ltibia 23.706
lfoot 42.7507 -46.6523
ltoes 45.3817
354
root -7.21664 18.0376 -4.11826 -170.023 7.40993 -175.053
lowerback -9.09132 11.1334 14.36
upperback -11.7034 18.0407 4.61403
thorax -5.61941 9.55228 -1.73585
lowerneck -10.2143 -18.3869 -4.42875
upperneck 17.7193 -26.7836 3.82165
head 8.25739 -13.096 -1.05535
rclavicle 8.34896e-014 1.38354e-013
rhumerus 91.1491 34.6115 -59.9276
rradius 74.1657
rwrist -2.15993
rhand -47.7327 41.9196
rfingers 7.12502
rthumb -20.4115 12.9724
lclavicle 8.34896e-014 1.38354e-013
lhumerus 54.3281 15.9048 53.2593
lradius 79.6806
lwrist 5.91498
lhand -25.7219 15.5364
lfingers 7.12502
lthumb -179.186 -494.485
rfemur 15.0518 -4.53192 16.5043
rtibia 19.1268
rfoot 32.3185 -32.0048
rtoes 26.6336
lfemur -23.3671 -19.8165 -14.4932
ltibia 23.7204
lfoot 42.8698 -46.7063
ltoes 45.2487
355
root -7.20928 18.0411 -4.10247 -169.949 7.43659 -174.963
lowerback -8.97927 11.1119 14.344
upperback -11.5779 17.942 4.59071
thorax -5.5303 9.487 -1.76528
lowerneck -10.8647 -18.1657 -4.03684
upperneck 17.912 -26.4099 3.53508
head 8.32294 -12.885 -1.2008
rclavicle -1.19271e-014 -5.24792e-014
rhumerus 90.7346 34.3839 -60.213
rradius 73.6493
rwrist -2.81316
rhand -47.3647 41.4252
rfingers 7.12502
rthumb -20.0579 12.4406
lclavicle -1.19271e-014 -5.24792e-014
lhumerus 54.4042 15.3639 52.9734
lradius 78.8681
lwrist 6.6831
lhand -25.0975 15.5616
lfingers 7.12502
lthumb -178.583 -494.463
rfemur 14.9127 -4.48089 16.6281
rtibia 19.2193
rfoot 32.0419 -32.1241
rtoes 26.7803
lfemur -23.4745 -19.6343 -14.3476
ltibia 23.6883
lfoot 43.1428 -46.682
ltoes 45.3063
356
root -7.20423 18.0438 -4.08513 -169.921 7.47714 -174.973
lowerback -8.87232 11.0975 14.2694
upperback -11.3989 17.8325 4.58217
thorax -5.39478 9.41976 -1.74398
lowerneck -11.4303 -17.9534 -3.81984
upperneck 18.0924 -26.0368 3.29553
head 8.4024 -12.6812 -1.30793
rclavicle 1.47896e-013 9.06458e-014
rhumerus 90.3889 34.1686 -60.3499
rradius 73.1033
rwrist -3.34756
rhand -46.982 41.2639
rfingers 7.12502
rthumb -19.69 12.2411
lclavicle 1.47896e-013 9.06458e-014
lhumerus 54.4876 14.7947 52.7593
lradius 77.9591
lwrist 7.38068
lhand -24.9325 15.5597
lfingers 7.12502
lthumb -178.423 -494.466
rfemur 14.7631 -4.53811 16.5872
rtibia 19.3835
rfoot 31.8849 -32.0875
rtoes 26.6656
lfemur -23.5369 -19.6066 -14.2928
ltibia 23.6133
lfoot 43.1404 -46.6229
ltoes 45.3122
357
root -7.19925 18.0479 -4.06755 -169.875 7.54761 -174.964
lowerback -8.78386 11.0902 14.2239
upperback -11.2077 17.7334 4.59945
thorax -5.23839 9.36066 -1.70291
lowerneck -11.8269 -17.7626 -3.74146
upperneck 18.1375 -25.702 3.20781
head 8.45038 -12.4992 -1.33889
rclavicle -6.99722e-014 3.02153e-014
rhumerus 90.0561 34.0176 -60.454
rradius 72.5302
rwrist -3.79517
rhand -46.6754 41.0908
rfingers 7.12502
rthumb -19.3952 12.0381
lclavicle -6.99722e-014 3.02153e-014
lhumerus 54.5305 14.2619 52.536
lradius 77.1456
lwrist 8.1495
lhand -25.0802 15.6916
lfingers 7.12502
lthumb -178.566 -494.333
rfemur 14.5561 -4.49149 16.6028
rtibia 19.6088
rfoot 31.7381 -31.9649
rtoes 26.4021
lfemur -23.5816 -19.6183 -14.197
ltibia 23.4837
lfoot 42.9724 -46.5115
ltoes 45.1231
358
root -7.19342 18.0513 -4.04999 -169.829 7.64465 -174.979
lowerback -8.7208 11.0511 14.124
upperback -11.04 17.5983 4.61657
thorax -5.11213 9.28669 -1.64136
lowerneck -12.1192 -17.5538 -3.48255
upperneck 18.1165 -25.3468 3.00307
head 8.4186 -12.319 -1.40122
rclavicle 1.12115e-013 5.08889e-014
rhumerus 89.7013 34.0026 -60.658
rradius 71.9083
rwrist -4.18421
rhand -46.3682 40.6341
rfingers 7.12502
rthumb -19.0998 11.5519
lclavicle 1.12115e-013 5.08889e-014
lhumerus 54.4854 13.7589 52.3071
lradius 76.3579
lwrist 8.694
lhand -25.1116 15.8234
lfingers 7.12502
lthumb -178.596 -494.202
rfemur 14.3254 -4.37705 16.6069
rtibia 19.8845
rfoot 31.4617 -31.8901
rtoes 26.3396
lfemur -23.5758 -19.5853 -14.1496
ltibia 23.2847
lfoot 42.9658 -46.284
ltoes 45.1338
359
root -7.18772 18.0547 -4.03226 -169.798 7.70043 -174.928
lowerback -8.59 10.9948 14.1042
upperback -10.9421 17.4872 4.63595
thorax -5.08601 9.21942 -1.64125
lowerneck -12.2172 -17.3403 -3.3574
upperneck 18.0993 -25.0192 2.92117
head 8.39216 -12.1583 -1.40237
rclavicle 8.26944e-014 1.74931e-014
rhumerus 89.2089 33.9645 -60.9077
rradius 71.2901
rwrist -4.72938
rhand -45.993 40.4529
rfingers 7.12502
rthumb -18.7389 11.3355
lclavicle 8.26944e-014 1.74931e-014
lhumerus 54.4426 13.1179 52.1371
lradius 75.4111
lwrist 8.86686
lhand -24.9816 15.7498
lfingers 7.12502
lthumb -178.471 -494.276
rfemur 14.0766 -4.30239 16.6796
rtibia 20.2374
rfoot 30.9881 -32.0171
rtoes 26.8354
lfemur -23.5017 -19.5757 -14.0473
ltibia 22.9903
lfoot 42.8971 -46.3546
ltoes 45.0656
360
root -7.1817 18.0544 -4.01453 -169.787 7.74963 -174.828
lowerback -8.40099 10.9702 14.1777
upperback -10.854 17.4236 4.626
thorax -5.06707 9.16647 -1.72031
lowerneck -12.3933 -17.1571 -3.40587
upperneck 18.2124 -24.7753 3.01812
head 8.47321 -12.0235 -1.36485
rclavicle -7.15625e-014 -1.03368e-013
rhumerus 88.587 33.7287 -61.1905
rradius 70.7262
rwrist -5.41975
rhand -45.4778 40.3578
rfingers 7.12502
rthumb -18.2434 11.1933
lclavicle -7.15625e-014 -1.03368e-013
lhumerus 54.4341 12.4305 51.9434
lradius 74.5314
lwrist 9.19293
lhand -24.5734 16.0116
lfingers 7.12502
lthumb -178.076 -494.017
rfemur 13.8238 -4.21538 16.8092
rtibia 20.6468
rfoot 30.5219 -32.2048
rtoes 27.3227
lfemur -23.3806 -19.5166 -13.9351
ltibia 22.6394
lfoot 44.0248 -45.0369
ltoes 46.4701
361
root -7.17433 18.0479 -3.99635 -169.814 7.86662 -174.868
lowerback -8.21751 10.9429 14.0679
upperback -10.7497 17.3418 4.5927
thorax -5.05871 9.1084 -1.73732
lowerneck -12.638 -16.9732 -3.3462
upperneck 18.3922 -24.5509 3.06113
head 8.56835 -11.8949 -1.36624
rclavicle -3.18055e-015 3.33958e-014
rhumerus 87.9749 33.509 -61.4591
rradius 70.1424
rwrist -5.74983
rhand -45.331 39.574
rfingers 7.12502
rthumb -18.1021 10.3964
lclavicle -3.18055e-015 3.33958e-014
lhumerus 54.4146 11.7604 51.7169
lradius 73.6817
lwrist 9.61813
lhand -24.1511 16.3923
lfingers 7.12502
lthumb -177.669 -493.641
rfemur 13.6202 -4.14412 16.7516
rtibia 21.0004
rfoot 30.7191 -31.7265
rtoes 26.4773
lfemur -23.2588 -19.3757 -14.023
ltibia 22.3342
lfoot 46.5354 -41.2826
ltoes 49.8886
362
root -7.16567 18.0463 -3.97604 -169.861 7.99507 -174.923
lowerback -8.06158 10.8777 13.8706
upperback -10.6145 17.21 4.62583
thorax -5.04758 9.03608 -1.64553
lowerneck -12.7344 -16.7669 -3.25909
upperneck 18.4282 -24.2758 3.08124
head 8.58115 -11.7524 -1.34559
rclavicle 8.0309e-014 -4.77083e-015
rhumerus 87.4749 33.4403 -61.6053
rradius 69.551
rwrist -5.8203
rhand -45.4794 38.5808
rfingers 7.12502
rthumb -18.2449 9.41644
lclavicle 8.0309e-014 -4.77083e-015
lhumerus 54.4886 11.1243 51.7217
lradius 72.6968
lwrist 9.99652
lhand -23.5151 16.2772
lfingers 7.12502
lthumb -177.054 -493.763
rfemur 13.4612 -4.10593 16.6763
rtibia 21.26
rfoot 31.5205 -30.6071
rtoes 24.425
lfemur -23.1694 -19.2751 -14.0869
ltibia 22.1344
lfoot 47.6505 -38.8717
ltoes 51.6985
363
root -7.15808 18.0568 -3.95627 -169.853 8.10912 -174.832
lowerback -8.00173 10.8186 13.845
upperback -10.4284 17.0578 4.70055
thorax -4.90656 8.9563 -1.55998
lowerneck -12.8927 -16.5801 -3.10754
upperneck 18.4242 -23.9908 2.98547
head 8.56683 -11.6087 -1.36566
rclavicle 1.17681e-013 3.33958e-014
rhumerus 87.0786 33.3911 -61.7069
rradius 69.0053
rwrist -6.11151
rhand -45.3419 38.091
rfingers 7.12502
rthumb -18.1126 8.9143
lclavicle 1.17681e-013 3.33958e-014
lhumerus 54.6662 10.6365 51.9138
lradius 71.712
lwrist 10.5916
lhand -22.4735 16.124
lfingers 7.12502
lthumb -176.048 -493.933
rfemur 13.284 -4.06025 16.7731
rtibia 21.46
rfoot 31.9635 -29.7938
rtoes 22.9822
lfemur -23.1578 -19.4 -13.8586
ltibia 22.0221
lfoot 46.4045 -40.3376
ltoes 50.3465
